<svg width="20" height="20" viewBox="0 0 20 20" fill="none" xmlns="http://www.w3.org/2000/svg">
<path d="M5.83268 18.3333C6.75316 18.3333 7.49935 17.5871 7.49935 16.6667C7.49935 15.7462 6.75316 15 5.83268 15C4.91221 15 4.16602 15.7462 4.16602 16.6667C4.16602 17.5871 4.91221 18.3333 5.83268 18.3333Z" fill="#2D3341"/>
<path d="M14.166 18.3333C15.0865 18.3333 15.8327 17.5871 15.8327 16.6667C15.8327 15.7462 15.0865 15 14.166 15C13.2455 15 12.4993 15.7462 12.4993 16.6667C12.4993 17.5871 13.2455 18.3333 14.166 18.3333Z" fill="#2D3341"/>
<path d="M2.87221 1.75613C2.46056 1.5503 1.96 1.71716 1.75418 2.12881C1.54835 2.54046 1.7152 3.04102 2.12685 3.24684L2.96311 3.66497C3.22124 3.79403 3.39421 4.04747 3.42034 4.33488L4.03182 11.0612C4.14889 12.3489 5.22855 13.3348 6.52156 13.3348H13.7424C14.8586 13.3348 15.8395 12.5949 16.1462 11.5216L17.164 7.95935C17.4682 6.89466 16.6687 5.83482 15.5614 5.83482H5.23024L5.08017 4.18399C5.00178 3.32175 4.48285 2.56145 3.70847 2.17426L2.87221 1.75613Z" fill="#2D3341"/>
</svg>
