<svg width="20" height="20" viewBox="0 0 20 20" fill="none" xmlns="http://www.w3.org/2000/svg">
<path fill-rule="evenodd" clip-rule="evenodd" d="M1.66732 13.332C1.20708 13.332 0.833984 13.7051 0.833984 14.1654C0.833984 14.6256 1.20708 14.9987 1.66732 14.9987H10.834C11.2942 14.9987 11.6673 14.6256 11.6673 14.1654C11.6673 13.7051 11.2942 13.332 10.834 13.332H1.66732ZM15.834 13.332C15.3737 13.332 15.0006 13.7051 15.0006 14.1654C15.0006 14.6256 15.3737 14.9987 15.834 14.9987H18.334C18.7942 14.9987 19.1673 14.6256 19.1673 14.1654C19.1673 13.7051 18.7942 13.332 18.334 13.332H15.834Z" fill="#101010"/>
<path fill-rule="evenodd" clip-rule="evenodd" d="M13.3333 15.832C14.2538 15.832 15 15.0858 15 14.1654C15 13.2449 14.2538 12.4987 13.3333 12.4987C12.4129 12.4987 11.6667 13.2449 11.6667 14.1654C11.6667 15.0858 12.4129 15.832 13.3333 15.832ZM13.3333 17.4987C15.1743 17.4987 16.6667 16.0063 16.6667 14.1654C16.6667 12.3244 15.1743 10.832 13.3333 10.832C11.4924 10.832 10 12.3244 10 14.1654C10 16.0063 11.4924 17.4987 13.3333 17.4987Z" fill="#101010"/>
<path fill-rule="evenodd" clip-rule="evenodd" d="M1.66732 5C1.20708 5 0.833984 5.3731 0.833984 5.83333C0.833984 6.29357 1.20708 6.66667 1.66732 6.66667H4.16732C4.62755 6.66667 5.00065 6.29357 5.00065 5.83333C5.00065 5.3731 4.62755 5 4.16732 5H1.66732ZM9.16732 5C8.70708 5 8.33398 5.3731 8.33398 5.83333C8.33398 6.29357 8.70708 6.66667 9.16732 6.66667H18.334C18.7942 6.66667 19.1673 6.29357 19.1673 5.83333C19.1673 5.3731 18.7942 5 18.334 5H9.16732Z" fill="#101010"/>
<path fill-rule="evenodd" clip-rule="evenodd" d="M6.66732 7.5C7.58779 7.5 8.33398 6.75381 8.33398 5.83333C8.33398 4.91286 7.58779 4.16667 6.66732 4.16667C5.74684 4.16667 5.00065 4.91286 5.00065 5.83333C5.00065 6.75381 5.74684 7.5 6.66732 7.5ZM6.66732 9.16667C8.50827 9.16667 10.0007 7.67428 10.0007 5.83333C10.0007 3.99238 8.50827 2.5 6.66732 2.5C4.82637 2.5 3.33398 3.99238 3.33398 5.83333C3.33398 7.67428 4.82637 9.16667 6.66732 9.16667Z" fill="#101010"/>
</svg>
